<svg xmlns="http://www.w3.org/2000/svg" width="414.268" height="522.418" viewBox="0 0 414.268 522.418">
  <g id="Group_6" data-name="Group 6" transform="translate(1298.268 4936.396)">
    <path id="Path_38" data-name="Path 38" d="M208.927,415.337c0-67.165,54.448-226.546,121.614-226.546s121.614,159.38,121.614,226.546a121.614,121.614,0,0,1-243.228,0Z" transform="translate(-1507.196 -5125.187)" fill="#6c63ff"/>
    <path id="Path_39" data-name="Path 39" d="M330.541,711.209a1,1,0,0,1-1-1V290.925a1,1,0,0,1,2,0V710.209A1,1,0,0,1,330.541,711.209Z" transform="translate(-1507.196 -5125.187)" fill="#3f3d56"/>
    <path id="Path_40" data-name="Path 40" d="M330.541,371.871a1,1,0,0,1-.707-.293L281.7,323.443a1,1,0,0,1,1.414-1.414l48.135,48.134a1,1,0,0,1-.707,1.707Z" transform="translate(-1507.196 -5125.187)" fill="#3f3d56"/>
    <path id="Path_41" data-name="Path 41" d="M330.541,455.2a1,1,0,0,1-.707-1.707l80.61-80.61a1,1,0,1,1,1.414,1.414l-80.61,80.61a1,1,0,0,1-.707.293Z" transform="translate(-1507.196 -5125.187)" fill="#3f3d56"/>
    <path id="Path_42" data-name="Path 42" d="M440.656,497.082c0-48.264,39.152-162.791,87.448-162.791s87.448,114.527,87.448,162.791a87.448,87.448,0,1,1-174.9,0Z" transform="translate(-1507.196 -5125.187)" fill="#e6e6e6"/>
    <path id="Path_43" data-name="Path 43" d="M528.1,709.69a.719.719,0,0,1-.719-.719V407.682a.719.719,0,0,1,1.438,0V708.971A.719.719,0,0,1,528.1,709.69Z" transform="translate(-1507.196 -5125.187)" fill="#3f3d56"/>
    <path id="Path_44" data-name="Path 44" d="M528.1,465.848a.717.717,0,0,1-.509-.21l-34.612-34.588A.719.719,0,1,1,494,430.033l34.612,34.588a.719.719,0,0,1-.508,1.227Z" transform="translate(-1507.196 -5125.187)" fill="#3f3d56"/>
    <path id="Path_45" data-name="Path 45" d="M528.1,525.727a.719.719,0,0,1-.509-1.227l57.964-57.925a.719.719,0,1,1,1.017,1.016l-57.964,57.925A.717.717,0,0,1,528.1,525.727Z" transform="translate(-1507.196 -5125.187)" fill="#3f3d56"/>
    <path id="Path_46" data-name="Path 46" d="M533.324,703.927a7.082,7.082,0,0,1-6.1-10.663h0l9.915-16.928,12.226,7.161-9.915,16.928a7.089,7.089,0,0,1-6.125,3.5Z" transform="translate(-1507.196 -5125.187)" fill="#6c63ff"/>
    <circle id="Ellipse_8" data-name="Ellipse 8" cx="8.719" cy="8.719" r="8.719" transform="translate(-943.684 -4477.385)" fill="#6c63ff"/>
    <path id="Path_47" data-name="Path 47" d="M494.962,703.927a7.082,7.082,0,0,1-6.1-10.664l9.915-16.928L511,683.5l-9.915,16.928a7.09,7.09,0,0,1-6.125,3.5Z" transform="translate(-1507.196 -5125.187)" fill="#6c63ff"/>
    <path id="Path_48" data-name="Path 48" d="M552.047,692.613H508.115a22.576,22.576,0,0,1-22.55-22.55v-6.674a7.84,7.84,0,0,1,7.831-7.831h58.651a18.528,18.528,0,1,1,0,37.056Z" transform="translate(-1507.196 -5125.187)" fill="#3f3d56"/>
    <path id="Path_49" data-name="Path 49" d="M549.965,709.692a7.092,7.092,0,0,1-7.084-7.084V682.991h14.168v19.618a7.092,7.092,0,0,1-7.084,7.084Z" transform="translate(-1507.196 -5125.187)" fill="#3f3d56"/>
    <path id="Path_50" data-name="Path 50" d="M508.852,709.692a7.092,7.092,0,0,1-7.084-7.084V682.991h14.168v19.618a7.092,7.092,0,0,1-7.084,7.084Z" transform="translate(-1507.196 -5125.187)" fill="#3f3d56"/>
    <path id="Path_51" data-name="Path 51" d="M472.623,642.837l-13.6,10.919L444.7,635.912a8.719,8.719,0,0,1,13.6-10.919Z" transform="translate(-1507.196 -5125.187)" fill="#6c63ff"/>
    <path id="Path_52" data-name="Path 52" d="M491.85,668.984l-22.486,18.06a6.294,6.294,0,0,1-8.839-.965l-9.46-11.778a20.044,20.044,0,0,1,3.073-28.148l3.587-2.881a16.812,16.812,0,0,1,23.608,2.577l11.482,14.3a6.294,6.294,0,0,1-.965,8.839Z" transform="translate(-1507.196 -5125.187)" fill="#3f3d56"/>
    <path id="Path_53" data-name="Path 53" d="M472.623,642.837l-9.347,7.507-16.038-19.969a5.994,5.994,0,1,1,9.347-7.507Z" transform="translate(-1507.196 -5125.187)" fill="#3f3d56"/>
    <path id="Path_54" data-name="Path 54" d="M490.48,669.842l-24.642,19.792a8.719,8.719,0,0,1-10.919-13.6l24.642-19.791Z" transform="translate(-1507.196 -5125.187)" fill="#3f3d56"/>
    <ellipse id="Ellipse_9" data-name="Ellipse 9" cx="2.044" cy="3.678" rx="2.044" ry="3.678" transform="translate(-1056.974 -4439.113) rotate(-38.77)" fill="#6c63ff"/>
    <path id="Path_55" data-name="Path 55" d="M386.495,698.13a10.5,10.5,0,0,1-10.5,10.5c-5.8,0-6-5.25-1.5-10.5-4.5-3-4.3-10.5,1.5-10.5a10.5,10.5,0,0,1,10.5,10.5Z" transform="translate(-1507.196 -5125.187)" fill="#ccc"/>
    <path id="Path_56" data-name="Path 56" d="M416.495,698.13a10.5,10.5,0,0,0,10.5,10.5c5.8,0,6-5.25,1.5-10.5,4.5-3,4.3-10.5-1.5-10.5A10.5,10.5,0,0,0,416.495,698.13Z" transform="translate(-1507.196 -5125.187)" fill="#ccc"/>
    <rect id="Rectangle_25" data-name="Rectangle 25" width="42" height="10.5" transform="translate(-1126.701 -4432.307)" fill="#ccc"/>
    <text id="vv" transform="translate(-912 -4545)" fill="rgba(245,245,245,0.91)" font-size="26" font-family="OpenSans-Semibold, Open Sans" font-weight="600"><tspan x="0" y="0">vv</tspan></text>
  </g>
</svg>
