<svg xmlns="http://www.w3.org/2000/svg" width="745.625" height="591.133" viewBox="0 0 745.625 591.133">
  <g id="Group_10" data-name="Group 10" transform="translate(2243.269 3091.396)">
    <path id="Path_57" data-name="Path 57" d="M89.41,494.381,85.3,514.694,161.7,540.208l6.064-29.98Z" transform="translate(-2277.03 -3087.288)" fill="#ffb6b6"/>
    <path id="Path_58" data-name="Path 58" d="M210.36,647.029l-8.091,40v0a26.011,26.011,0,0,1-30.65,20.335l-.828-.168,13.248-65.5Z" transform="translate(-2390.299 -3243.775)" fill="#2f2e41"/>
    <circle id="Ellipse_276" data-name="Ellipse 276" cx="51.871" cy="51.871" r="51.871" transform="translate(-2152.921 -2976.446)" fill="#feb8b8"/>
    <path id="Path_1461" data-name="Path 1461" d="M337.7,274.45A59.907,59.907,0,0,0,303.616,248.4l-6.368,4.647v-6.034a55.141,55.141,0,0,0-10.3-.6l-5.494,4.971v-4.558a59.335,59.335,0,0,0-40.932,24.347c-11.931,17.2-13.945,41.129-2.21,58.467,3.221-9.9,7.131-19.189,10.353-29.088a29.3,29.3,0,0,0,7.633.037l3.919-9.145,1.1,8.758c12.148-1.058,30.166-3.382,41.682-5.511l-1.12-6.719,6.7,5.583c3.528-.812,5.623-1.549,5.45-2.112,8.565,13.808,19.047,22.627,27.611,36.435C344.888,308.406,348.632,292.217,337.7,274.45Z" transform="translate(-2390.299 -3243.775)" fill="#2f2e41"/>
    <ellipse id="Ellipse_260" data-name="Ellipse 260" cx="133.56" cy="37.359" rx="133.56" ry="37.359" transform="translate(-2217.733 -2659.859)" fill="#2f2e41"/>
    <path id="Path_59" data-name="Path 59" d="M400.809,452.588c-1.784-10.731-3.624-21.668-8.611-31.335-3.278-6.332-8.481-12.366-15.5-13.618a14.989,14.989,0,0,1-4.035-.934c-2.055-.99-29.673-16.756-34.063-19.5-3.769-2.357-9.719-6.722-12.719-6.722-3.018-.066-14.591,2.627-59.76-.9a163.134,163.134,0,0,0-22.01,10.822c-.146-.1-46.882,25-48.638,24.935-3.325-.14-6.416,1.989-8.322,4.67s-2.8,6-3.736,9.209c10.208,22.733,19.548,45.495,29.757,68.228a5.822,5.822,0,0,1,.738,2.8,6.833,6.833,0,0,1-1.27,2.8c-5.006,8.042-4.847,18.157-4.3,27.609s1.224,19.436-3,27.908c-1.149,2.326-2.643,4.455-3.736,6.781-2.559,5.268-3.484,22.117-1.989,27.777l187.267,5.365C382.86,587.409,400.809,452.588,400.809,452.588Z" transform="translate(-2390.299 -3243.775)" fill="#6c63ff"/>
    <path id="Path_1421" data-name="Path 1421" d="M167.233,498.445a33.062,33.062,0,0,0-.112,8.154l2.684,38.546c.252,3.633.5,7.257.841,10.881.644,7.033,1.606,14.01,2.8,20.977a3.736,3.736,0,0,0,3.829,3.633c11.815,2.5,24.022,2.4,36.08,1.719,18.4-1.027,65.474-2.97,68.35-6.706s1.2-9.779-2.55-12.8-65.871-10.386-65.871-10.386c.607-4.81,2.438-9.34,4.175-13.907,3.12-8.1,6.034-16.466,6.09-25.143s-3.213-17.8-10.321-22.771c-5.847-4.081-13.375-4.838-20.5-4.67-5.184.149-14.141-1.093-18.876.934C170.1,488.556,167.933,494.776,167.233,498.445Z" transform="translate(-2390.299 -3243.775)" fill="#fbbebe"/>
    <path id="Path_1423" data-name="Path 1423" d="M401.141,585.578c3.11-1.186,6.538-.757,9.872-.308,10.732,1.466,21.622,2.97,31.569,7.257,4.67,2,9.116,4.67,12.273,8.6,2.8,3.54,4.436,7.874,5.987,12.142l3.587,9.826a47.3,47.3,0,0,1,3.129,11.516c1.121,11.759-6.921,22.845-17.036,28.954S428.5,671.849,416.9,674.128s-23.247,4.8-34.8,7.472a140.084,140.084,0,0,1-16.373,3.222c-12.366,1.4-25.292-.663-37.042,3.428-4.67,1.635-9.256,4.063-14.1,5.193a87.744,87.744,0,0,1-9.751,1.485l-22.238,2.54a121.313,121.313,0,0,1-13.636,1.046c-9.713,0-19.268-2.3-28.7-4.6a7.259,7.259,0,0,1-2.8-1.13c-1.494-1.177-1.821-3.26-2.036-5.146q-1.429-12.525-2.5-25.077c-.224-2.718-.392-5.66,1.093-7.948,1.868-2.8,5.511-3.68,8.836-4.222a230.577,230.577,0,0,1,42.665-2.961c5.426-5.426,14.374-5.454,21.482-8.406a63.883,63.883,0,0,0,7.575-4.119,99,99,0,0,1,41.59-13.141,38.719,38.719,0,0,0,8.509-1.214c5.5-1.709,10.517-6.361,16.167-5.221.7-1.933,1.186-4.521,2.8-5.847.8-.682,1.793-1.139,2.531-1.868,1.56-1.578,1.7-4.063,1.466-6.267s-.757-4.464-.187-6.613a9.143,9.143,0,0,1,1.037-2.307C391.278,587.6,395.509,585.111,401.141,585.578Z" transform="translate(-2390.299 -3243.775)" fill="#2f2e41"/>
    <path id="Path_1430" data-name="Path 1430" d="M182.88,429.9a9.668,9.668,0,0,0-2.073,3.316,156.78,156.78,0,0,0-13.169,53.816,5.38,5.38,0,0,1-.607,2.606,11.4,11.4,0,0,1-1.373,1.485,5.156,5.156,0,0,0,.617,7.266q.127.107.261.206c1.541-2.9,5.23-3.848,8.509-4.1,15.7-1.242,31.036,6.062,46.783,5.511-1.111-3.839-2.709-7.528-3.615-11.413-4.007-17.251,5.987-36.033-.14-52.649-1.224-3.325-3.269-6.594-6.491-8.051a17.289,17.289,0,0,0-4.156-1.1c-3.979-.719-11.9-3.792-15.747-2.559-1.42.458-1.98,1.793-3.157,2.6C186.734,427.977,184.362,428.4,182.88,429.9Z" transform="translate(-2390.299 -3243.775)" fill="#6c63ff"/>
    <path id="Path_1421-2" data-name="Path 1421" d="M400.921,486.906c-4.735-2.027-13.692-.785-18.876-.934-7.125-.168-14.653.589-20.5,4.67-7.108,4.971-10.377,14.094-10.321,22.771s2.97,17.043,6.09,25.143c1.737,4.567,3.568,9.1,4.175,13.907,0,0-62.121,7.365-65.871,10.386s-5.426,9.064-2.55,12.8,92.615,7.487,104.43,4.987A3.736,3.736,0,0,0,401.327,577c1.194-6.967,2.156-13.944,2.8-20.977.341-3.624.589-7.248.841-10.881l2.684-38.546a33.063,33.063,0,0,0-.112-8.154C406.84,494.776,404.668,488.556,400.921,486.906Z" transform="translate(-2390.299 -3243.775)" fill="#fbbebe"/>
    <path id="Path_1430-2" data-name="Path 1430" d="M386.251,426.835c-1.177-.807-1.737-2.142-3.157-2.6-3.847-1.233-11.768,1.84-15.747,2.559a17.292,17.292,0,0,0-4.156,1.1c-3.222,1.457-5.267,4.726-6.491,8.051-6.127,16.616,3.867,35.4-.14,52.649-.906,3.885-2.5,7.574-3.615,11.413,15.747.551,31.083-6.753,46.783-5.511,3.279.252,6.968,1.2,8.509,4.1q.134-.1.261-.206a5.156,5.156,0,0,0,.617-7.266,11.4,11.4,0,0,1-1.373-1.485,5.38,5.38,0,0,1-.607-2.606,156.779,156.779,0,0,0-13.169-53.816,9.668,9.668,0,0,0-2.073-3.316C390.411,428.4,388.039,427.977,386.251,426.835Z" transform="translate(-2390.299 -3243.775)" fill="#6c63ff"/>
    <path id="Path_60" data-name="Path 60" d="M299.243,523.378l-2.73,20.543-80.538-.755,4.03-30.32Z" transform="translate(-2277.03 -3087.288)" fill="#ffb6b6"/>
    <path id="Path_61" data-name="Path 61" d="M433.122,677.272l-8.8,66.24-.838-.111a26.011,26.011,0,0,1-22.356-29.208v0l5.377-40.457Z" transform="translate(-2390.299 -3243.775)" fill="#2f2e41"/>
    <path id="Path_1427" data-name="Path 1427" d="M223.039,595.974c0,.934-1.466,0-1.6-1-1.027-7.556-7.024-13.786-14.01-16.812s-14.944-3.185-22.509-2.466c-11.441,1.083-24.284,5.464-28.468,16.158-.99,2.5-10.264,24.76-9.359,29.766,2.438,13.356,11.572,24.779,22.64,32.69s24,12.637,36.9,16.9A639.946,639.946,0,0,0,311.24,696.194c5.753.869,11.563,1.672,17.073,3.521,4.931,1.653,9.545,4.128,14.365,6.071,11.208,4.5,23.266,6.108,35.211,7.687,2.036.262,4.371.448,5.875-.934,1.943-1.8,1.3-4.941.747-7.528a40.488,40.488,0,0,1,4.773-28.729c2-3.362,4.6-6.809,4.222-10.7-.448-4.539-4.969-7.752-9.471-8.481s-9.078.346-13.6.934a7.285,7.285,0,0,1-4.623-.458A9.239,9.239,0,0,1,364,655.971a20.482,20.482,0,0,0-23.854-3.334c-1.672.934-4.2-1.149-5.94-1.933l-19.642-8.892C292,631.6,269.322,621.348,245.449,614.885a14.515,14.515,0,0,1-5.324-2.214c-1.186-.934-2.036-2.2-3.129-3.241-2.382-2.251-5.7-3.148-8.555-4.745S222.385,599.177,223.039,595.974Z" transform="translate(-2390.299 -3243.775)" fill="#2f2e41"/>
    <circle id="Ellipse_10" data-name="Ellipse 10" cx="14" cy="14" r="14" transform="translate(-2130.413 -2689.298)" fill="#fbbebe"/>
    <circle id="Ellipse_11" data-name="Ellipse 11" cx="14" cy="14" r="14" transform="translate(-2099.413 -2689.298)" fill="#fbbebe"/>
    <path id="Path_62" data-name="Path 62" d="M391.3,600.024H198.966a8.48,8.48,0,0,1-8.47-8.47V474.868a8.48,8.48,0,0,1,8.47-8.47H391.3a8.48,8.48,0,0,1,8.47,8.47V591.555A8.48,8.48,0,0,1,391.3,600.024Z" transform="translate(-2390.299 -3243.775)" fill="#3f3d56"/>
    <circle id="Ellipse_263" data-name="Ellipse 263" cx="5.604" cy="5.604" r="5.604" transform="translate(-2101.234 -2716.167)" fill="#fff"/>
    <path id="Path_63" data-name="Path 63" d="M208.927,415.337c0-67.165,54.448-226.546,121.614-226.546s121.614,159.38,121.614,226.546a121.614,121.614,0,0,1-243.228,0Z" transform="translate(-2113.196 -3280.187)" fill="#6c63ff"/>
    <path id="Path_64" data-name="Path 64" d="M330.541,711.209a1,1,0,0,1-1-1V290.925a1,1,0,0,1,2,0V710.209A1,1,0,0,1,330.541,711.209Z" transform="translate(-2113.196 -3280.187)" fill="#3f3d56"/>
    <path id="Path_65" data-name="Path 65" d="M330.541,371.871a1,1,0,0,1-.707-.293L281.7,323.443a1,1,0,0,1,1.414-1.414l48.135,48.134a1,1,0,0,1-.707,1.707Z" transform="translate(-2113.196 -3280.187)" fill="#3f3d56"/>
    <path id="Path_66" data-name="Path 66" d="M330.541,455.2a1,1,0,0,1-.707-1.707l80.61-80.61a1,1,0,1,1,1.414,1.414l-80.61,80.61a1,1,0,0,1-.707.293Z" transform="translate(-2113.196 -3280.187)" fill="#3f3d56"/>
    <path id="Path_67" data-name="Path 67" d="M440.656,497.082c0-48.264,39.152-162.791,87.448-162.791s87.448,114.527,87.448,162.791a87.448,87.448,0,1,1-174.9,0Z" transform="translate(-2113.196 -3280.187)" fill="#e6e6e6"/>
    <path id="Path_68" data-name="Path 68" d="M528.1,709.69a.719.719,0,0,1-.719-.719V407.682a.719.719,0,0,1,1.438,0V708.971A.719.719,0,0,1,528.1,709.69Z" transform="translate(-2113.196 -3280.187)" fill="#3f3d56"/>
    <path id="Path_69" data-name="Path 69" d="M528.1,465.848a.717.717,0,0,1-.509-.21l-34.612-34.588A.719.719,0,1,1,494,430.033l34.612,34.588a.719.719,0,0,1-.508,1.227Z" transform="translate(-2113.196 -3280.187)" fill="#3f3d56"/>
    <path id="Path_70" data-name="Path 70" d="M528.1,525.727a.719.719,0,0,1-.509-1.227l57.964-57.925a.719.719,0,1,1,1.017,1.016l-57.964,57.925A.717.717,0,0,1,528.1,525.727Z" transform="translate(-2113.196 -3280.187)" fill="#3f3d56"/>
    <path id="Path_71" data-name="Path 71" d="M533.324,703.927a7.082,7.082,0,0,1-6.1-10.663h0l9.915-16.928,12.226,7.161-9.915,16.928a7.089,7.089,0,0,1-6.125,3.5Z" transform="translate(-2113.196 -3280.187)" fill="#6c63ff"/>
    <circle id="Ellipse_12" data-name="Ellipse 12" cx="8.719" cy="8.719" r="8.719" transform="translate(-1549.684 -2632.385)" fill="#6c63ff"/>
    <path id="Path_72" data-name="Path 72" d="M494.962,703.927a7.082,7.082,0,0,1-6.1-10.664l9.915-16.928L511,683.5l-9.915,16.928a7.09,7.09,0,0,1-6.125,3.5Z" transform="translate(-2113.196 -3280.187)" fill="#6c63ff"/>
    <path id="Path_73" data-name="Path 73" d="M552.047,692.613H508.115a22.576,22.576,0,0,1-22.55-22.55v-6.674a7.84,7.84,0,0,1,7.831-7.831h58.651a18.528,18.528,0,1,1,0,37.056Z" transform="translate(-2113.196 -3280.187)" fill="#3f3d56"/>
    <path id="Path_74" data-name="Path 74" d="M549.965,709.692a7.092,7.092,0,0,1-7.084-7.084V682.991h14.168v19.618a7.092,7.092,0,0,1-7.084,7.084Z" transform="translate(-2113.196 -3280.187)" fill="#3f3d56"/>
    <path id="Path_75" data-name="Path 75" d="M508.852,709.692a7.092,7.092,0,0,1-7.084-7.084V682.991h14.168v19.618a7.092,7.092,0,0,1-7.084,7.084Z" transform="translate(-2113.196 -3280.187)" fill="#3f3d56"/>
    <path id="Path_76" data-name="Path 76" d="M472.623,642.837l-13.6,10.919L444.7,635.912a8.719,8.719,0,0,1,13.6-10.919Z" transform="translate(-2113.196 -3280.187)" fill="#6c63ff"/>
    <path id="Path_77" data-name="Path 77" d="M491.85,668.984l-22.486,18.06a6.294,6.294,0,0,1-8.839-.965l-9.46-11.778a20.044,20.044,0,0,1,3.073-28.148l3.587-2.881a16.812,16.812,0,0,1,23.608,2.577l11.482,14.3a6.294,6.294,0,0,1-.965,8.839Z" transform="translate(-2113.196 -3280.187)" fill="#3f3d56"/>
    <path id="Path_78" data-name="Path 78" d="M472.623,642.837l-9.347,7.507-16.038-19.969a5.994,5.994,0,1,1,9.347-7.507Z" transform="translate(-2113.196 -3280.187)" fill="#3f3d56"/>
    <path id="Path_79" data-name="Path 79" d="M490.48,669.842l-24.642,19.792a8.719,8.719,0,0,1-10.919-13.6l24.642-19.791Z" transform="translate(-2113.196 -3280.187)" fill="#3f3d56"/>
    <ellipse id="Ellipse_13" data-name="Ellipse 13" cx="2.044" cy="3.678" rx="2.044" ry="3.678" transform="translate(-1662.974 -2594.113) rotate(-38.77)" fill="#6c63ff"/>
    <path id="Path_80" data-name="Path 80" d="M386.495,698.13a10.5,10.5,0,0,1-10.5,10.5c-5.8,0-6-5.25-1.5-10.5-4.5-3-4.3-10.5,1.5-10.5a10.5,10.5,0,0,1,10.5,10.5Z" transform="translate(-2113.196 -3280.187)" fill="#ccc"/>
    <path id="Path_81" data-name="Path 81" d="M416.495,698.13a10.5,10.5,0,0,0,10.5,10.5c5.8,0,6-5.25,1.5-10.5,4.5-3,4.3-10.5-1.5-10.5A10.5,10.5,0,0,0,416.495,698.13Z" transform="translate(-2113.196 -3280.187)" fill="#ccc"/>
    <rect id="Rectangle_26" data-name="Rectangle 26" width="42" height="10.5" transform="translate(-1732.701 -2587.307)" fill="#ccc"/>
  </g>
</svg>
